<?xml version="1.0" encoding="UTF-8" standalone="no"?>
<!DOCTYPE svg PUBLIC "-//W3C//DTD SVG 1.1//EN"
 "http://www.w3.org/Graphics/SVG/1.1/DTD/svg11.dtd">
<!-- Generated by graphviz version 14.0.0 (0)
 -->
<!-- Title: vanetza::dcc::LimericTransmitRateControl Pages: 1 -->
<svg width="314pt" height="382pt"
 viewBox="0.00 0.00 314.00 382.00" xmlns="http://www.w3.org/2000/svg" xmlns:xlink="http://www.w3.org/1999/xlink">

<svg id="main" version="1.1" xmlns="http://www.w3.org/2000/svg" xmlns:xlink="http://www.w3.org/1999/xlink" xml:space="preserve">

<style type="text/css"><![CDATA[
.node, .edge {opacity: 0.7;}
.node.selected, .edge.selected {opacity: 1;}
.edge:hover path { stroke: red; }
.edge:hover polygon { stroke: red; fill: red; }
]]></style>
<script type="application/ecmascript" xlink:href="../../svg.min.js"/>
<svg id="graph" class="graph">
<g id="graph0" class="graph" transform="scale(1 1) rotate(0) translate(4 377.5)">
<title>vanetza::dcc::LimericTransmitRateControl</title>
<!-- Node1 -->
<g id="Node000001" class="node">
<title>Node1</title>
<g id="a_Node000001"><a xlink:title=" ">
<polygon fill="#999999" stroke="none" points="233.5,-134 69.25,-134 69.25,0 233.5,0 233.5,-134"/>
<text xml:space="preserve" text-anchor="start" x="78.25" y="-120.5" font-family="Helvetica,sans-Serif" font-size="10.00">vanetza::dcc::LimericTransmit</text>
<text xml:space="preserve" text-anchor="start" x="122.5" y="-107.75" font-family="Helvetica,sans-Serif" font-size="10.00">RateControl</text>
<text xml:space="preserve" text-anchor="start" x="75.5" y="-91" font-family="Helvetica,sans-Serif" font-size="10.00">&#45;</text>
<text xml:space="preserve" text-anchor="start" x="85.5" y="-91" font-family="Helvetica,sans-Serif" font-size="10.00">m_budget</text>
<text xml:space="preserve" text-anchor="start" x="73.25" y="-74.25" font-family="Helvetica,sans-Serif" font-size="10.00">+</text>
<text xml:space="preserve" text-anchor="start" x="85.5" y="-74.25" font-family="Helvetica,sans-Serif" font-size="10.00">LimericTransmitRateControl()</text>
<text xml:space="preserve" text-anchor="start" x="73.25" y="-57.5" font-family="Helvetica,sans-Serif" font-size="10.00">+</text>
<text xml:space="preserve" text-anchor="start" x="85.5" y="-57.5" font-family="Helvetica,sans-Serif" font-size="10.00">delay()</text>
<text xml:space="preserve" text-anchor="start" x="73.25" y="-40.75" font-family="Helvetica,sans-Serif" font-size="10.00">+</text>
<text xml:space="preserve" text-anchor="start" x="85.5" y="-40.75" font-family="Helvetica,sans-Serif" font-size="10.00">interval()</text>
<text xml:space="preserve" text-anchor="start" x="73.25" y="-24" font-family="Helvetica,sans-Serif" font-size="10.00">+</text>
<text xml:space="preserve" text-anchor="start" x="85.5" y="-24" font-family="Helvetica,sans-Serif" font-size="10.00">notify()</text>
<text xml:space="preserve" text-anchor="start" x="73.25" y="-7.25" font-family="Helvetica,sans-Serif" font-size="10.00">+</text>
<text xml:space="preserve" text-anchor="start" x="85.5" y="-7.25" font-family="Helvetica,sans-Serif" font-size="10.00">update()</text>
<polygon fill="#666666" stroke="#666666" points="69.25,-102.5 69.25,-102.5 233.5,-102.5 233.5,-102.5 69.25,-102.5"/>
<polygon fill="#666666" stroke="#666666" points="69.25,-85.75 69.25,-85.75 83.5,-85.75 83.5,-85.75 69.25,-85.75"/>
<polygon fill="#666666" stroke="#666666" points="83.5,-85.75 83.5,-85.75 233.5,-85.75 233.5,-85.75 83.5,-85.75"/>
<polygon fill="none" stroke="#666666" points="69.25,0 69.25,-134 233.5,-134 233.5,0 69.25,0"/>
</a>
</g>
</g>
<!-- Node2 -->
<g id="Node000002" class="node">
<title>Node2</title>
<g id="a_Node000002"><a xlink:href="../../de/d9c/classvanetza_1_1dcc_1_1TransmitRateControl.html" target="_top" xlink:title=" ">
<polygon fill="white" stroke="none" points="221.75,-237 81,-237 81,-170 221.75,-170 221.75,-237"/>
<text xml:space="preserve" text-anchor="start" x="85" y="-223.5" font-family="Helvetica,sans-Serif" font-size="10.00">vanetza::dcc::TransmitRate</text>
<text xml:space="preserve" text-anchor="start" x="133.75" y="-210.75" font-family="Helvetica,sans-Serif" font-size="10.00">Control</text>
<text xml:space="preserve" text-anchor="start" x="148.38" y="-194" font-family="Helvetica,sans-Serif" font-size="10.00"> </text>
<text xml:space="preserve" text-anchor="start" x="148.38" y="-177.25" font-family="Helvetica,sans-Serif" font-size="10.00"> </text>
<polygon fill="#bfbfbf" stroke="#bfbfbf" points="81,-205.5 81,-205.5 221.75,-205.5 221.75,-205.5 81,-205.5"/>
<polygon fill="#bfbfbf" stroke="#bfbfbf" points="81,-188.75 81,-188.75 221.75,-188.75 221.75,-188.75 81,-188.75"/>
<polygon fill="none" stroke="#bfbfbf" points="81,-170 81,-237 221.75,-237 221.75,-170 81,-170"/>
</a>
</g>
</g>
<!-- Node2&#45;&gt;Node1 -->
<g id="edge1_Node000001_Node000002" class="edge">
<title>Node2&#45;&gt;Node1</title>
<g id="a_edge1_Node000001_Node000002"><a xlink:title=" ">
<path fill="none" stroke="#63b8ff" d="M151.38,-158.92C151.38,-150.87 151.38,-142.3 151.38,-133.76"/>
<polygon fill="none" stroke="#63b8ff" points="147.88,-158.77 151.38,-168.77 154.88,-158.77 147.88,-158.77"/>
</a>
</g>
</g>
<!-- Node3 -->
<g id="Node000003" class="node">
<title>Node3</title>
<g id="a_Node000003"><a xlink:href="../../dd/dbf/classvanetza_1_1dcc_1_1TransmitRateThrottle.html" target="_top" xlink:title=" ">
<polygon fill="white" stroke="none" points="140.75,-373.5 0,-373.5 0,-273 140.75,-273 140.75,-373.5"/>
<text xml:space="preserve" text-anchor="start" x="4" y="-360" font-family="Helvetica,sans-Serif" font-size="10.00">vanetza::dcc::TransmitRate</text>
<text xml:space="preserve" text-anchor="start" x="51.25" y="-347.25" font-family="Helvetica,sans-Serif" font-size="10.00">Throttle</text>
<text xml:space="preserve" text-anchor="start" x="67.38" y="-330.5" font-family="Helvetica,sans-Serif" font-size="10.00"> </text>
<text xml:space="preserve" text-anchor="start" x="4.31" y="-313.75" font-family="Helvetica,sans-Serif" font-size="10.00">+</text>
<text xml:space="preserve" text-anchor="start" x="16.88" y="-313.75" font-family="Helvetica,sans-Serif" font-size="10.00">delay()</text>
<text xml:space="preserve" text-anchor="start" x="4.31" y="-297" font-family="Helvetica,sans-Serif" font-size="10.00">+</text>
<text xml:space="preserve" text-anchor="start" x="16.88" y="-297" font-family="Helvetica,sans-Serif" font-size="10.00">interval()</text>
<text xml:space="preserve" text-anchor="start" x="4.31" y="-280.25" font-family="Helvetica,sans-Serif" font-size="10.00">+</text>
<text xml:space="preserve" text-anchor="start" x="16.88" y="-280.25" font-family="Helvetica,sans-Serif" font-size="10.00">~TransmitRateThrottle()</text>
<polygon fill="#bfbfbf" stroke="#bfbfbf" points="0,-342 0,-342 140.75,-342 140.75,-342 0,-342"/>
<polygon fill="#bfbfbf" stroke="#bfbfbf" points="0,-325.25 0,-325.25 140.75,-325.25 140.75,-325.25 0,-325.25"/>
<polygon fill="none" stroke="#bfbfbf" points="0,-273 0,-373.5 140.75,-373.5 140.75,-273 0,-273"/>
</a>
</g>
</g>
<!-- Node3&#45;&gt;Node2 -->
<g id="edge2_Node000002_Node000003" class="edge">
<title>Node3&#45;&gt;Node2</title>
<g id="a_edge2_Node000002_Node000003"><a xlink:title=" ">
<path fill="none" stroke="#63b8ff" d="M110.4,-264.07C116.81,-254.75 123.23,-245.42 129.02,-236.99"/>
<polygon fill="none" stroke="#63b8ff" points="107.66,-261.87 104.88,-272.09 113.43,-265.83 107.66,-261.87"/>
</a>
</g>
</g>
<!-- Node4 -->
<g id="Node000004" class="node">
<title>Node4</title>
<g id="a_Node000004"><a xlink:href="../../d2/d13/classvanetza_1_1dcc_1_1TransmitRateFeedback.html" target="_top" xlink:title=" ">
<polygon fill="white" stroke="none" points="306.25,-365.12 158.5,-365.12 158.5,-281.38 306.25,-281.38 306.25,-365.12"/>
<text xml:space="preserve" text-anchor="start" x="166" y="-351.62" font-family="Helvetica,sans-Serif" font-size="10.00">vanetza::dcc::TransmitRate</text>
<text xml:space="preserve" text-anchor="start" x="209.12" y="-338.88" font-family="Helvetica,sans-Serif" font-size="10.00">Feedback</text>
<text xml:space="preserve" text-anchor="start" x="229.38" y="-322.12" font-family="Helvetica,sans-Serif" font-size="10.00"> </text>
<text xml:space="preserve" text-anchor="start" x="162.5" y="-305.38" font-family="Helvetica,sans-Serif" font-size="10.00">+</text>
<text xml:space="preserve" text-anchor="start" x="174.75" y="-305.38" font-family="Helvetica,sans-Serif" font-size="10.00">notify()</text>
<text xml:space="preserve" text-anchor="start" x="162.5" y="-288.62" font-family="Helvetica,sans-Serif" font-size="10.00">+</text>
<text xml:space="preserve" text-anchor="start" x="174.75" y="-288.62" font-family="Helvetica,sans-Serif" font-size="10.00">~TransmitRateFeedback()</text>
<polygon fill="#bfbfbf" stroke="#bfbfbf" points="158.5,-333.62 158.5,-333.62 306.25,-333.62 306.25,-333.62 158.5,-333.62"/>
<polygon fill="#bfbfbf" stroke="#bfbfbf" points="158.5,-316.88 158.5,-316.88 306.25,-316.88 306.25,-316.88 158.5,-316.88"/>
<polygon fill="none" stroke="#bfbfbf" points="158.5,-281.38 158.5,-365.12 306.25,-365.12 306.25,-281.38 158.5,-281.38"/>
</a>
</g>
</g>
<!-- Node4&#45;&gt;Node2 -->
<g id="edge3_Node000002_Node000004" class="edge">
<title>Node4&#45;&gt;Node2</title>
<g id="a_edge3_Node000002_Node000004"><a xlink:title=" ">
<path fill="none" stroke="#63b8ff" d="M197.79,-271.97C189.58,-260.04 181.04,-247.62 173.56,-236.75"/>
<polygon fill="none" stroke="#63b8ff" points="194.86,-273.89 203.41,-280.15 200.63,-269.93 194.86,-273.89"/>
</a>
</g>
</g>
</g>
</svg>
</svg>

<style type='text/css'>
<![CDATA[
[data-mouse-over-selected='false'] { opacity: 0.7; }
[data-mouse-over-selected='true']  { opacity: 1.0; }
]]>
</style>
<script type="application/ecmascript"><![CDATA[
document.addEventListener('DOMContentLoaded', (event) => {
  highlightEdges();
  highlightAdjacentNodes();
});
]]></script>
</svg>
