<?xml version="1.0" encoding="UTF-8" standalone="no"?>
<!DOCTYPE svg PUBLIC "-//W3C//DTD SVG 1.1//EN"
 "http://www.w3.org/Graphics/SVG/1.1/DTD/svg11.dtd">
<!-- Generated by graphviz version 14.0.0 (0)
 -->
<!-- Title: vanetza::convertible::byte_buffer_impl&lt; ByteBuffer &gt; Pages: 1 -->
<svg width="257pt" height="519pt"
 viewBox="0.00 0.00 257.00 519.00" xmlns="http://www.w3.org/2000/svg" xmlns:xlink="http://www.w3.org/1999/xlink">
<g id="graph0" class="graph" transform="scale(1 1) rotate(0) translate(4 514.5)">
<title>vanetza::convertible::byte_buffer_impl&lt; ByteBuffer &gt;</title>
<!-- Node1 -->
<g id="Node000001" class="node">
<title>Node1</title>
<g id="a_Node000001"><a xlink:title=" ">
<polygon fill="#999999" stroke="none" points="172.25,-150.75 0,-150.75 0,0 172.25,0 172.25,-150.75"/>
<text xml:space="preserve" text-anchor="start" x="4" y="-137.25" font-family="Helvetica,sans-Serif" font-size="10.00">vanetza::convertible</text>
<text xml:space="preserve" text-anchor="start" x="4" y="-124.5" font-family="Helvetica,sans-Serif" font-size="10.00">::byte_buffer_impl&lt; ByteBuffer &gt;</text>
<text xml:space="preserve" text-anchor="start" x="19.31" y="-107.75" font-family="Helvetica,sans-Serif" font-size="10.00">+</text>
<text xml:space="preserve" text-anchor="start" x="46.88" y="-107.75" font-family="Helvetica,sans-Serif" font-size="10.00">m_buffer</text>
<text xml:space="preserve" text-anchor="start" x="21.56" y="-91" font-family="Helvetica,sans-Serif" font-size="10.00">&#45;</text>
<text xml:space="preserve" text-anchor="start" x="46.88" y="-91" font-family="Helvetica,sans-Serif" font-size="10.00">m_wrapper</text>
<text xml:space="preserve" text-anchor="start" x="19.31" y="-74.25" font-family="Helvetica,sans-Serif" font-size="10.00">+</text>
<text xml:space="preserve" text-anchor="start" x="46.88" y="-74.25" font-family="Helvetica,sans-Serif" font-size="10.00">byte_buffer_impl()</text>
<text xml:space="preserve" text-anchor="start" x="19.31" y="-57.5" font-family="Helvetica,sans-Serif" font-size="10.00">+</text>
<text xml:space="preserve" text-anchor="start" x="46.88" y="-57.5" font-family="Helvetica,sans-Serif" font-size="10.00">convert()</text>
<text xml:space="preserve" text-anchor="start" x="19.31" y="-40.75" font-family="Helvetica,sans-Serif" font-size="10.00">+</text>
<text xml:space="preserve" text-anchor="start" x="46.88" y="-40.75" font-family="Helvetica,sans-Serif" font-size="10.00">size()</text>
<text xml:space="preserve" text-anchor="start" x="19.31" y="-24" font-family="Helvetica,sans-Serif" font-size="10.00">+</text>
<text xml:space="preserve" text-anchor="start" x="46.88" y="-24" font-family="Helvetica,sans-Serif" font-size="10.00">duplicate()</text>
<text xml:space="preserve" text-anchor="start" x="19.31" y="-7.25" font-family="Helvetica,sans-Serif" font-size="10.00">+</text>
<text xml:space="preserve" text-anchor="start" x="46.88" y="-7.25" font-family="Helvetica,sans-Serif" font-size="10.00">wrapper()</text>
<polygon fill="#666666" stroke="#666666" points="0,-119.25 0,-119.25 172.25,-119.25 172.25,-119.25 0,-119.25"/>
<polygon fill="#666666" stroke="#666666" points="0,-85.75 0,-85.75 44.88,-85.75 44.88,-85.75 0,-85.75"/>
<polygon fill="#666666" stroke="#666666" points="44.88,-85.75 44.88,-85.75 172.25,-85.75 172.25,-85.75 44.88,-85.75"/>
<polygon fill="none" stroke="#666666" points="0,0 0,-150.75 172.25,-150.75 172.25,0 0,0"/>
</a>
</g>
</g>
<!-- Node2 -->
<g id="Node000002" class="node">
<title>Node2</title>
<g id="a_Node000002"><a xlink:href="../../d4/dce/structvanetza_1_1convertible_1_1byte__buffer.html" target="_top" xlink:title=" ">
<polygon fill="white" stroke="none" points="140,-510.5 32.25,-510.5 32.25,-393.25 140,-393.25 140,-510.5"/>
<text xml:space="preserve" text-anchor="start" x="36.25" y="-497" font-family="Helvetica,sans-Serif" font-size="10.00">vanetza::convertible</text>
<text xml:space="preserve" text-anchor="start" x="55" y="-484.25" font-family="Helvetica,sans-Serif" font-size="10.00">::byte_buffer</text>
<text xml:space="preserve" text-anchor="start" x="83.12" y="-467.5" font-family="Helvetica,sans-Serif" font-size="10.00"> </text>
<text xml:space="preserve" text-anchor="start" x="40.12" y="-450.75" font-family="Helvetica,sans-Serif" font-size="10.00">+</text>
<text xml:space="preserve" text-anchor="start" x="56.25" y="-450.75" font-family="Helvetica,sans-Serif" font-size="10.00">convert()</text>
<text xml:space="preserve" text-anchor="start" x="40.12" y="-434" font-family="Helvetica,sans-Serif" font-size="10.00">+</text>
<text xml:space="preserve" text-anchor="start" x="56.25" y="-434" font-family="Helvetica,sans-Serif" font-size="10.00">size()</text>
<text xml:space="preserve" text-anchor="start" x="40.12" y="-417.25" font-family="Helvetica,sans-Serif" font-size="10.00">+</text>
<text xml:space="preserve" text-anchor="start" x="56.25" y="-417.25" font-family="Helvetica,sans-Serif" font-size="10.00">duplicate()</text>
<text xml:space="preserve" text-anchor="start" x="40.12" y="-400.5" font-family="Helvetica,sans-Serif" font-size="10.00">+</text>
<text xml:space="preserve" text-anchor="start" x="56.25" y="-400.5" font-family="Helvetica,sans-Serif" font-size="10.00">~byte_buffer()</text>
<polygon fill="#bfbfbf" stroke="#bfbfbf" points="32.25,-479 32.25,-479 140,-479 140,-479 32.25,-479"/>
<polygon fill="#bfbfbf" stroke="#bfbfbf" points="32.25,-462.25 32.25,-462.25 140,-462.25 140,-462.25 32.25,-462.25"/>
<polygon fill="none" stroke="#bfbfbf" points="32.25,-393.25 32.25,-510.5 140,-510.5 140,-393.25 32.25,-393.25"/>
</a>
</g>
</g>
<!-- Node2&#45;&gt;Node1 -->
<g id="edge1_Node000001_Node000002" class="edge">
<title>Node2&#45;&gt;Node1</title>
<g id="a_edge1_Node000001_Node000002"><a xlink:title=" ">
<path fill="none" stroke="#63b8ff" d="M80.76,-382.13C78.96,-316.47 78.91,-217.8 80.62,-150.43"/>
<polygon fill="none" stroke="#63b8ff" points="77.26,-382.19 81.06,-392.08 84.26,-381.98 77.26,-382.19"/>
</a>
</g>
</g>
<!-- Node2&#45;&gt;Node1 -->
<g id="edge2_Node000001_Node000002" class="edge">
<title>Node2&#45;&gt;Node1</title>
<g id="a_edge2_Node000001_Node000002"><a xlink:title=" ">
<path fill="none" stroke="#63b8ff" d="M91.49,-382.13C93.29,-316.47 93.34,-217.8 91.63,-150.43"/>
<polygon fill="none" stroke="#63b8ff" points="87.99,-381.98 91.19,-392.08 94.99,-382.19 87.99,-381.98"/>
</a>
</g>
</g>
<!-- Node3 -->
<g id="Node000003" class="node">
<title>Node3</title>
<g id="a_Node000003"><a xlink:href="../../d7/deb/structvanetza_1_1convertible_1_1byte__buffer__impl.html" target="_top" xlink:title=" ">
<polygon fill="white" stroke="none" points="249,-356.25 123.25,-356.25 123.25,-205.5 249,-205.5 249,-356.25"/>
<text xml:space="preserve" text-anchor="start" x="127.25" y="-342.75" font-family="Helvetica,sans-Serif" font-size="10.00">vanetza::convertible</text>
<text xml:space="preserve" text-anchor="start" x="127.25" y="-330" font-family="Helvetica,sans-Serif" font-size="10.00">::byte_buffer_impl&lt; T &gt;</text>
<text xml:space="preserve" text-anchor="start" x="133.19" y="-313.25" font-family="Helvetica,sans-Serif" font-size="10.00">&#45;</text>
<text xml:space="preserve" text-anchor="start" x="146.88" y="-313.25" font-family="Helvetica,sans-Serif" font-size="10.00">m_wrapper</text>
<text xml:space="preserve" text-anchor="start" x="130.94" y="-296.5" font-family="Helvetica,sans-Serif" font-size="10.00">+</text>
<text xml:space="preserve" text-anchor="start" x="146.88" y="-296.5" font-family="Helvetica,sans-Serif" font-size="10.00">byte_buffer_impl()</text>
<text xml:space="preserve" text-anchor="start" x="130.94" y="-279.75" font-family="Helvetica,sans-Serif" font-size="10.00">+</text>
<text xml:space="preserve" text-anchor="start" x="146.88" y="-279.75" font-family="Helvetica,sans-Serif" font-size="10.00">byte_buffer_impl()</text>
<text xml:space="preserve" text-anchor="start" x="130.94" y="-263" font-family="Helvetica,sans-Serif" font-size="10.00">+</text>
<text xml:space="preserve" text-anchor="start" x="146.88" y="-263" font-family="Helvetica,sans-Serif" font-size="10.00">convert()</text>
<text xml:space="preserve" text-anchor="start" x="130.94" y="-246.25" font-family="Helvetica,sans-Serif" font-size="10.00">+</text>
<text xml:space="preserve" text-anchor="start" x="146.88" y="-246.25" font-family="Helvetica,sans-Serif" font-size="10.00">duplicate()</text>
<text xml:space="preserve" text-anchor="start" x="130.94" y="-229.5" font-family="Helvetica,sans-Serif" font-size="10.00">+</text>
<text xml:space="preserve" text-anchor="start" x="146.88" y="-229.5" font-family="Helvetica,sans-Serif" font-size="10.00">size()</text>
<text xml:space="preserve" text-anchor="start" x="130.94" y="-212.75" font-family="Helvetica,sans-Serif" font-size="10.00">+</text>
<text xml:space="preserve" text-anchor="start" x="146.88" y="-212.75" font-family="Helvetica,sans-Serif" font-size="10.00">wrapper()</text>
<polygon fill="#bfbfbf" stroke="#bfbfbf" points="123.25,-324.75 123.25,-324.75 249,-324.75 249,-324.75 123.25,-324.75"/>
<polygon fill="#bfbfbf" stroke="#bfbfbf" points="123.25,-308 123.25,-308 144.88,-308 144.88,-308 123.25,-308"/>
<polygon fill="#bfbfbf" stroke="#bfbfbf" points="144.88,-308 144.88,-308 249,-308 249,-308 144.88,-308"/>
<polygon fill="none" stroke="#bfbfbf" points="123.25,-205.5 123.25,-356.25 249,-356.25 249,-205.5 123.25,-205.5"/>
</a>
</g>
</g>
<!-- Node2&#45;&gt;Node3 -->
<g id="edge4_Node000003_Node000002" class="edge">
<title>Node2&#45;&gt;Node3</title>
<g id="a_edge4_Node000003_Node000002"><a xlink:title=" ">
<path fill="none" stroke="#63b8ff" d="M125.76,-383.89C131.16,-374.76 136.73,-365.35 142.2,-356.11"/>
<polygon fill="none" stroke="#63b8ff" points="122.83,-381.97 120.75,-392.36 128.86,-385.53 122.83,-381.97"/>
</a>
</g>
</g>
<!-- Node3&#45;&gt;Node1 -->
<g id="edge3_Node000001_Node000003" class="edge">
<title>Node3&#45;&gt;Node1</title>
<g id="a_edge3_Node000001_Node000003"><a xlink:title=" ">
<path fill="none" stroke="orange" d="M144.58,-195.34C137.27,-180.46 129.71,-165.07 122.55,-150.51"/>
<polygon fill="orange" stroke="orange" points="141.38,-196.75 148.93,-204.18 147.66,-193.67 141.38,-196.75"/>
</a>
</g>
<text xml:space="preserve" text-anchor="start" x="142.12" y="-175" font-family="Helvetica,sans-Serif" font-size="10.00" fill="grey">&lt; ByteBuffer &gt;</text>
</g>
</g>
</svg>
