<?xml version="1.0" encoding="UTF-8" standalone="no"?>
<!DOCTYPE svg PUBLIC "-//W3C//DTD SVG 1.1//EN"
 "http://www.w3.org/Graphics/SVG/1.1/DTD/svg11.dtd">
<!-- Generated by graphviz version 15.0.0 (0)
 -->
<!-- Title: vanetza::rpc::AsioStream Pages: 1 -->
<svg width="154pt" height="287pt"
 viewBox="0.00 0.00 154.00 287.00" xmlns="http://www.w3.org/2000/svg" xmlns:xlink="http://www.w3.org/1999/xlink">
<g id="graph0" class="graph" transform="scale(1 1) rotate(0) translate(4 282.5)">
<title>vanetza::rpc::AsioStream</title>
<!-- Node1 -->
<g id="Node000001" class="node">
<title>Node1</title>
<g id="a_Node000001"><a xlink:title=" ">
<polygon fill="#999999" stroke="none" points="146.25,-188.25 0,-188.25 0,0 146.25,0 146.25,-188.25"/>
<text xml:space="preserve" text-anchor="start" x="12" y="-174.5" font-family="Helvetica,sans-Serif" font-size="10.00">vanetza::rpc::AsioStream</text>
<text xml:space="preserve" text-anchor="start" x="6.25" y="-157.75" font-family="Helvetica,sans-Serif" font-size="10.00">&#45;</text>
<text xml:space="preserve" text-anchor="start" x="16.25" y="-157.75" font-family="Helvetica,sans-Serif" font-size="10.00">socket_</text>
<text xml:space="preserve" text-anchor="start" x="6.25" y="-141" font-family="Helvetica,sans-Serif" font-size="10.00">&#45;</text>
<text xml:space="preserve" text-anchor="start" x="16.25" y="-141" font-family="Helvetica,sans-Serif" font-size="10.00">disconnect_promise_</text>
<text xml:space="preserve" text-anchor="start" x="6.25" y="-124.25" font-family="Helvetica,sans-Serif" font-size="10.00">&#45;</text>
<text xml:space="preserve" text-anchor="start" x="16.25" y="-124.25" font-family="Helvetica,sans-Serif" font-size="10.00">disconnect_fulfiller_</text>
<text xml:space="preserve" text-anchor="start" x="4" y="-107.5" font-family="Helvetica,sans-Serif" font-size="10.00">+</text>
<text xml:space="preserve" text-anchor="start" x="16.25" y="-107.5" font-family="Helvetica,sans-Serif" font-size="10.00">AsioStream()</text>
<text xml:space="preserve" text-anchor="start" x="4" y="-90.75" font-family="Helvetica,sans-Serif" font-size="10.00">+</text>
<text xml:space="preserve" text-anchor="start" x="16.25" y="-90.75" font-family="Helvetica,sans-Serif" font-size="10.00">shutdownWrite()</text>
<text xml:space="preserve" text-anchor="start" x="4" y="-74" font-family="Helvetica,sans-Serif" font-size="10.00">+</text>
<text xml:space="preserve" text-anchor="start" x="16.25" y="-74" font-family="Helvetica,sans-Serif" font-size="10.00">write()</text>
<text xml:space="preserve" text-anchor="start" x="4" y="-57.25" font-family="Helvetica,sans-Serif" font-size="10.00">+</text>
<text xml:space="preserve" text-anchor="start" x="16.25" y="-57.25" font-family="Helvetica,sans-Serif" font-size="10.00">write()</text>
<text xml:space="preserve" text-anchor="start" x="4" y="-40.5" font-family="Helvetica,sans-Serif" font-size="10.00">+</text>
<text xml:space="preserve" text-anchor="start" x="16.25" y="-40.5" font-family="Helvetica,sans-Serif" font-size="10.00">whenWriteDisconnected()</text>
<text xml:space="preserve" text-anchor="start" x="4" y="-23.75" font-family="Helvetica,sans-Serif" font-size="10.00">+</text>
<text xml:space="preserve" text-anchor="start" x="16.25" y="-23.75" font-family="Helvetica,sans-Serif" font-size="10.00">tryRead()</text>
<text xml:space="preserve" text-anchor="start" x="6.25" y="-7" font-family="Helvetica,sans-Serif" font-size="10.00">&#45;</text>
<text xml:space="preserve" text-anchor="start" x="16.25" y="-7" font-family="Helvetica,sans-Serif" font-size="10.00">signalDisconnect()</text>
<polygon fill="#666666" stroke="#666666" points="0,-169.5 0,-169.5 146.25,-169.5 146.25,-169.5 0,-169.5"/>
<polygon fill="#666666" stroke="#666666" points="0,-119.25 0,-119.25 14.25,-119.25 14.25,-119.25 0,-119.25"/>
<polygon fill="#666666" stroke="#666666" points="14.25,-119.25 14.25,-119.25 146.25,-119.25 146.25,-119.25 14.25,-119.25"/>
<polygon fill="none" stroke="#666666" points="0,0 0,-188.25 146.25,-188.25 146.25,0 0,0"/>
</a>
</g>
</g>
<!-- Node2 -->
<g id="Node000002" class="node">
<title>Node2</title>
<g id="a_Node000002"><a xlink:title=" ">
<polygon fill="white" stroke="none" points="121.38,-278.5 24.88,-278.5 24.88,-224.25 121.38,-224.25 121.38,-278.5"/>
<text xml:space="preserve" text-anchor="start" x="28.88" y="-264.75" font-family="Helvetica,sans-Serif" font-size="10.00">kj::AsyncIoStream</text>
<text xml:space="preserve" text-anchor="start" x="70.12" y="-248" font-family="Helvetica,sans-Serif" font-size="10.00"> </text>
<text xml:space="preserve" text-anchor="start" x="70.12" y="-231.25" font-family="Helvetica,sans-Serif" font-size="10.00"> </text>
<polygon fill="#bfbfbf" stroke="#bfbfbf" points="24.88,-259.75 24.88,-259.75 121.38,-259.75 121.38,-259.75 24.88,-259.75"/>
<polygon fill="#bfbfbf" stroke="#bfbfbf" points="24.88,-243 24.88,-243 121.38,-243 121.38,-243 24.88,-243"/>
<polygon fill="none" stroke="#bfbfbf" points="24.88,-224.25 24.88,-278.5 121.38,-278.5 121.38,-224.25 24.88,-224.25"/>
</a>
</g>
</g>
<!-- Node2&#45;&gt;Node1 -->
<g id="edge1_Node000001_Node000002" class="edge">
<title>Node2&#45;&gt;Node1</title>
<g id="a_edge1_Node000001_Node000002"><a xlink:title=" ">
<path fill="none" stroke="#63b8ff" d="M73.12,-212.98C73.12,-205.29 73.12,-196.88 73.12,-188.2"/>
<polygon fill="none" stroke="#63b8ff" points="69.63,-212.88 73.13,-222.88 76.63,-212.88 69.63,-212.88"/>
</a>
</g>
</g>
</g>
</svg>
