<?xml version="1.0" encoding="UTF-8" standalone="no"?>
<!DOCTYPE svg PUBLIC "-//W3C//DTD SVG 1.1//EN"
 "http://www.w3.org/Graphics/SVG/1.1/DTD/svg11.dtd">
<!-- Generated by graphviz version 14.0.0 (0)
 -->
<!-- Title: vanetza::security::v2::header_field_type&lt; HeaderFieldType::Signer_Info &gt; Pages: 1 -->
<svg width="180pt" height="252pt"
 viewBox="0.00 0.00 180.00 252.00" xmlns="http://www.w3.org/2000/svg" xmlns:xlink="http://www.w3.org/1999/xlink">
<g id="graph0" class="graph" transform="scale(1 1) rotate(0) translate(4 247.75)">
<title>vanetza::security::v2::header_field_type&lt; HeaderFieldType::Signer_Info &gt;</title>
<!-- Node1 -->
<g id="Node000001" class="node">
<title>Node1</title>
<g id="a_Node000001"><a xlink:title=" ">
<polygon fill="#999999" stroke="none" points="136.25,-92.5 0,-92.5 0,0 136.25,0 136.25,-92.5"/>
<text xml:space="preserve" text-anchor="start" x="4" y="-79" font-family="Helvetica,sans-Serif" font-size="10.00">vanetza::security::</text>
<text xml:space="preserve" text-anchor="start" x="4" y="-66.25" font-family="Helvetica,sans-Serif" font-size="10.00">v2::header_field_type</text>
<text xml:space="preserve" text-anchor="start" x="4" y="-53.5" font-family="Helvetica,sans-Serif" font-size="10.00">&lt; HeaderFieldType::Signer</text>
<text xml:space="preserve" text-anchor="start" x="50.5" y="-40.75" font-family="Helvetica,sans-Serif" font-size="10.00">_Info &gt;</text>
<text xml:space="preserve" text-anchor="start" x="65.12" y="-24" font-family="Helvetica,sans-Serif" font-size="10.00"> </text>
<text xml:space="preserve" text-anchor="start" x="65.12" y="-7.25" font-family="Helvetica,sans-Serif" font-size="10.00"> </text>
<polygon fill="#666666" stroke="#666666" points="0,-35.5 0,-35.5 136.25,-35.5 136.25,-35.5 0,-35.5"/>
<polygon fill="#666666" stroke="#666666" points="0,-18.75 0,-18.75 136.25,-18.75 136.25,-18.75 0,-18.75"/>
<polygon fill="none" stroke="#666666" points="0,0 0,-92.5 136.25,-92.5 136.25,0 0,0"/>
</a>
</g>
</g>
<!-- Node2 -->
<g id="Node000002" class="node">
<title>Node2</title>
<g id="a_Node000002"><a xlink:href="../../d9/d3a/structvanetza_1_1security_1_1v2_1_1header__field__type.html" target="_top" xlink:title="resolve type for matching HeaderFieldType">
<polygon fill="white" stroke="none" points="125,-243.75 11.25,-243.75 11.25,-164 125,-164 125,-243.75"/>
<text xml:space="preserve" text-anchor="start" x="15.25" y="-230.25" font-family="Helvetica,sans-Serif" font-size="10.00">vanetza::security::</text>
<text xml:space="preserve" text-anchor="start" x="15.25" y="-217.5" font-family="Helvetica,sans-Serif" font-size="10.00">v2::header_field_type</text>
<text xml:space="preserve" text-anchor="start" x="16.75" y="-204.75" font-family="Helvetica,sans-Serif" font-size="10.00">&lt; HeaderFieldType &gt;</text>
<text xml:space="preserve" text-anchor="start" x="65.12" y="-188" font-family="Helvetica,sans-Serif" font-size="10.00"> </text>
<text xml:space="preserve" text-anchor="start" x="65.12" y="-171.25" font-family="Helvetica,sans-Serif" font-size="10.00"> </text>
<polygon fill="#666666" stroke="#666666" points="11.25,-199.5 11.25,-199.5 125,-199.5 125,-199.5 11.25,-199.5"/>
<polygon fill="#666666" stroke="#666666" points="11.25,-182.75 11.25,-182.75 125,-182.75 125,-182.75 11.25,-182.75"/>
<polygon fill="none" stroke="#666666" points="11.25,-164 11.25,-243.75 125,-243.75 125,-164 11.25,-164"/>
</a>
</g>
</g>
<!-- Node2&#45;&gt;Node1 -->
<g id="edge1_Node000001_Node000002" class="edge">
<title>Node2&#45;&gt;Node1</title>
<g id="a_edge1_Node000001_Node000002"><a xlink:title=" ">
<path fill="none" stroke="orange" d="M68.12,-152.61C68.12,-133.18 68.12,-111.13 68.12,-92.24"/>
<polygon fill="orange" stroke="orange" points="64.63,-152.49 68.13,-162.49 71.63,-152.49 64.63,-152.49"/>
</a>
</g>
<text xml:space="preserve" text-anchor="start" x="71.12" y="-133.5" font-family="Helvetica,sans-Serif" font-size="10.00" fill="grey">&lt; HeaderFieldType::</text>
<text xml:space="preserve" text-anchor="start" x="71.12" y="-116.75" font-family="Helvetica,sans-Serif" font-size="10.00" fill="grey">  Signer_Info &gt;</text>
</g>
</g>
</svg>
