<?xml version="1.0" encoding="UTF-8" standalone="no"?>
<!DOCTYPE svg PUBLIC "-//W3C//DTD SVG 1.1//EN"
 "http://www.w3.org/Graphics/SVG/1.1/DTD/svg11.dtd">
<!-- Generated by graphviz version 14.0.0 (0)
 -->
<!-- Title: vanetza::dcc::SingleReactiveTransmitRateControl Pages: 1 -->
<svg width="314pt" height="394pt"
 viewBox="0.00 0.00 314.00 394.00" xmlns="http://www.w3.org/2000/svg" xmlns:xlink="http://www.w3.org/1999/xlink">

<svg id="main" version="1.1" xmlns="http://www.w3.org/2000/svg" xmlns:xlink="http://www.w3.org/1999/xlink" xml:space="preserve">

<style type="text/css"><![CDATA[
.node, .edge {opacity: 0.7;}
.node.selected, .edge.selected {opacity: 1;}
.edge:hover path { stroke: red; }
.edge:hover polygon { stroke: red; fill: red; }
]]></style>
<script type="application/ecmascript" xlink:href="../../svg.min.js"/>
<svg id="graph" class="graph">
<g id="graph0" class="graph" transform="scale(1 1) rotate(0) translate(4 390.25)">
<title>vanetza::dcc::SingleReactiveTransmitRateControl</title>
<!-- Node1 -->
<g id="Node000001" class="node">
<title>Node1</title>
<g id="a_Node000001"><a xlink:title=" ">
<polygon fill="#999999" stroke="none" points="230.5,-146.75 72.25,-146.75 72.25,0 230.5,0 230.5,-146.75"/>
<text xml:space="preserve" text-anchor="start" x="81.25" y="-133.25" font-family="Helvetica,sans-Serif" font-size="10.00">vanetza::dcc::SingleReactive</text>
<text xml:space="preserve" text-anchor="start" x="101.12" y="-120.5" font-family="Helvetica,sans-Serif" font-size="10.00">TransmitRateControl</text>
<text xml:space="preserve" text-anchor="start" x="78.5" y="-103.75" font-family="Helvetica,sans-Serif" font-size="10.00">&#45;</text>
<text xml:space="preserve" text-anchor="start" x="88.5" y="-103.75" font-family="Helvetica,sans-Serif" font-size="10.00">m_fsm</text>
<text xml:space="preserve" text-anchor="start" x="78.5" y="-87" font-family="Helvetica,sans-Serif" font-size="10.00">&#45;</text>
<text xml:space="preserve" text-anchor="start" x="88.5" y="-87" font-family="Helvetica,sans-Serif" font-size="10.00">m_fsm_budget</text>
<text xml:space="preserve" text-anchor="start" x="76.25" y="-70.25" font-family="Helvetica,sans-Serif" font-size="10.00">+</text>
<text xml:space="preserve" text-anchor="start" x="88.5" y="-70.25" font-family="Helvetica,sans-Serif" font-size="10.00">SingleReactiveTransmitRate</text>
<text xml:space="preserve" text-anchor="start" x="88.5" y="-57.5" font-family="Helvetica,sans-Serif" font-size="10.00">Control()</text>
<text xml:space="preserve" text-anchor="start" x="76.25" y="-40.75" font-family="Helvetica,sans-Serif" font-size="10.00">+</text>
<text xml:space="preserve" text-anchor="start" x="88.5" y="-40.75" font-family="Helvetica,sans-Serif" font-size="10.00">delay()</text>
<text xml:space="preserve" text-anchor="start" x="76.25" y="-24" font-family="Helvetica,sans-Serif" font-size="10.00">+</text>
<text xml:space="preserve" text-anchor="start" x="88.5" y="-24" font-family="Helvetica,sans-Serif" font-size="10.00">interval()</text>
<text xml:space="preserve" text-anchor="start" x="76.25" y="-7.25" font-family="Helvetica,sans-Serif" font-size="10.00">+</text>
<text xml:space="preserve" text-anchor="start" x="88.5" y="-7.25" font-family="Helvetica,sans-Serif" font-size="10.00">notify()</text>
<polygon fill="#666666" stroke="#666666" points="72.25,-115.25 72.25,-115.25 230.5,-115.25 230.5,-115.25 72.25,-115.25"/>
<polygon fill="#666666" stroke="#666666" points="72.25,-81.75 72.25,-81.75 86.5,-81.75 86.5,-81.75 72.25,-81.75"/>
<polygon fill="#666666" stroke="#666666" points="86.5,-81.75 86.5,-81.75 230.5,-81.75 230.5,-81.75 86.5,-81.75"/>
<polygon fill="none" stroke="#666666" points="72.25,0 72.25,-146.75 230.5,-146.75 230.5,0 72.25,0"/>
</a>
</g>
</g>
<!-- Node2 -->
<g id="Node000002" class="node">
<title>Node2</title>
<g id="a_Node000002"><a xlink:href="../../de/d9c/classvanetza_1_1dcc_1_1TransmitRateControl.html" target="_top" xlink:title=" ">
<polygon fill="white" stroke="none" points="221.75,-249.75 81,-249.75 81,-182.75 221.75,-182.75 221.75,-249.75"/>
<text xml:space="preserve" text-anchor="start" x="85" y="-236.25" font-family="Helvetica,sans-Serif" font-size="10.00">vanetza::dcc::TransmitRate</text>
<text xml:space="preserve" text-anchor="start" x="133.75" y="-223.5" font-family="Helvetica,sans-Serif" font-size="10.00">Control</text>
<text xml:space="preserve" text-anchor="start" x="148.38" y="-206.75" font-family="Helvetica,sans-Serif" font-size="10.00"> </text>
<text xml:space="preserve" text-anchor="start" x="148.38" y="-190" font-family="Helvetica,sans-Serif" font-size="10.00"> </text>
<polygon fill="#bfbfbf" stroke="#bfbfbf" points="81,-218.25 81,-218.25 221.75,-218.25 221.75,-218.25 81,-218.25"/>
<polygon fill="#bfbfbf" stroke="#bfbfbf" points="81,-201.5 81,-201.5 221.75,-201.5 221.75,-201.5 81,-201.5"/>
<polygon fill="none" stroke="#bfbfbf" points="81,-182.75 81,-249.75 221.75,-249.75 221.75,-182.75 81,-182.75"/>
</a>
</g>
</g>
<!-- Node2&#45;&gt;Node1 -->
<g id="edge1_Node000001_Node000002" class="edge">
<title>Node2&#45;&gt;Node1</title>
<g id="a_edge1_Node000001_Node000002"><a xlink:title=" ">
<path fill="none" stroke="#63b8ff" d="M151.38,-171.43C151.38,-163.55 151.38,-155.15 151.38,-146.72"/>
<polygon fill="none" stroke="#63b8ff" points="147.88,-171.42 151.38,-181.42 154.88,-171.42 147.88,-171.42"/>
</a>
</g>
</g>
<!-- Node3 -->
<g id="Node000003" class="node">
<title>Node3</title>
<g id="a_Node000003"><a xlink:href="../../dd/dbf/classvanetza_1_1dcc_1_1TransmitRateThrottle.html" target="_top" xlink:title=" ">
<polygon fill="white" stroke="none" points="140.75,-386.25 0,-386.25 0,-285.75 140.75,-285.75 140.75,-386.25"/>
<text xml:space="preserve" text-anchor="start" x="4" y="-372.75" font-family="Helvetica,sans-Serif" font-size="10.00">vanetza::dcc::TransmitRate</text>
<text xml:space="preserve" text-anchor="start" x="51.25" y="-360" font-family="Helvetica,sans-Serif" font-size="10.00">Throttle</text>
<text xml:space="preserve" text-anchor="start" x="67.38" y="-343.25" font-family="Helvetica,sans-Serif" font-size="10.00"> </text>
<text xml:space="preserve" text-anchor="start" x="4.31" y="-326.5" font-family="Helvetica,sans-Serif" font-size="10.00">+</text>
<text xml:space="preserve" text-anchor="start" x="16.88" y="-326.5" font-family="Helvetica,sans-Serif" font-size="10.00">delay()</text>
<text xml:space="preserve" text-anchor="start" x="4.31" y="-309.75" font-family="Helvetica,sans-Serif" font-size="10.00">+</text>
<text xml:space="preserve" text-anchor="start" x="16.88" y="-309.75" font-family="Helvetica,sans-Serif" font-size="10.00">interval()</text>
<text xml:space="preserve" text-anchor="start" x="4.31" y="-293" font-family="Helvetica,sans-Serif" font-size="10.00">+</text>
<text xml:space="preserve" text-anchor="start" x="16.88" y="-293" font-family="Helvetica,sans-Serif" font-size="10.00">~TransmitRateThrottle()</text>
<polygon fill="#bfbfbf" stroke="#bfbfbf" points="0,-354.75 0,-354.75 140.75,-354.75 140.75,-354.75 0,-354.75"/>
<polygon fill="#bfbfbf" stroke="#bfbfbf" points="0,-338 0,-338 140.75,-338 140.75,-338 0,-338"/>
<polygon fill="none" stroke="#bfbfbf" points="0,-285.75 0,-386.25 140.75,-386.25 140.75,-285.75 0,-285.75"/>
</a>
</g>
</g>
<!-- Node3&#45;&gt;Node2 -->
<g id="edge2_Node000002_Node000003" class="edge">
<title>Node3&#45;&gt;Node2</title>
<g id="a_edge2_Node000002_Node000003"><a xlink:title=" ">
<path fill="none" stroke="#63b8ff" d="M110.4,-276.82C116.81,-267.5 123.23,-258.17 129.02,-249.74"/>
<polygon fill="none" stroke="#63b8ff" points="107.66,-274.62 104.88,-284.84 113.43,-278.58 107.66,-274.62"/>
</a>
</g>
</g>
<!-- Node4 -->
<g id="Node000004" class="node">
<title>Node4</title>
<g id="a_Node000004"><a xlink:href="../../d2/d13/classvanetza_1_1dcc_1_1TransmitRateFeedback.html" target="_top" xlink:title=" ">
<polygon fill="white" stroke="none" points="306.25,-377.88 158.5,-377.88 158.5,-294.12 306.25,-294.12 306.25,-377.88"/>
<text xml:space="preserve" text-anchor="start" x="166" y="-364.38" font-family="Helvetica,sans-Serif" font-size="10.00">vanetza::dcc::TransmitRate</text>
<text xml:space="preserve" text-anchor="start" x="209.12" y="-351.62" font-family="Helvetica,sans-Serif" font-size="10.00">Feedback</text>
<text xml:space="preserve" text-anchor="start" x="229.38" y="-334.88" font-family="Helvetica,sans-Serif" font-size="10.00"> </text>
<text xml:space="preserve" text-anchor="start" x="162.5" y="-318.12" font-family="Helvetica,sans-Serif" font-size="10.00">+</text>
<text xml:space="preserve" text-anchor="start" x="174.75" y="-318.12" font-family="Helvetica,sans-Serif" font-size="10.00">notify()</text>
<text xml:space="preserve" text-anchor="start" x="162.5" y="-301.38" font-family="Helvetica,sans-Serif" font-size="10.00">+</text>
<text xml:space="preserve" text-anchor="start" x="174.75" y="-301.38" font-family="Helvetica,sans-Serif" font-size="10.00">~TransmitRateFeedback()</text>
<polygon fill="#bfbfbf" stroke="#bfbfbf" points="158.5,-346.38 158.5,-346.38 306.25,-346.38 306.25,-346.38 158.5,-346.38"/>
<polygon fill="#bfbfbf" stroke="#bfbfbf" points="158.5,-329.62 158.5,-329.62 306.25,-329.62 306.25,-329.62 158.5,-329.62"/>
<polygon fill="none" stroke="#bfbfbf" points="158.5,-294.12 158.5,-377.88 306.25,-377.88 306.25,-294.12 158.5,-294.12"/>
</a>
</g>
</g>
<!-- Node4&#45;&gt;Node2 -->
<g id="edge3_Node000002_Node000004" class="edge">
<title>Node4&#45;&gt;Node2</title>
<g id="a_edge3_Node000002_Node000004"><a xlink:title=" ">
<path fill="none" stroke="#63b8ff" d="M197.79,-284.72C189.58,-272.79 181.04,-260.37 173.56,-249.5"/>
<polygon fill="none" stroke="#63b8ff" points="194.86,-286.64 203.41,-292.9 200.63,-282.68 194.86,-286.64"/>
</a>
</g>
</g>
</g>
</svg>
</svg>

<style type='text/css'>
<![CDATA[
[data-mouse-over-selected='false'] { opacity: 0.7; }
[data-mouse-over-selected='true']  { opacity: 1.0; }
]]>
</style>
<script type="application/ecmascript"><![CDATA[
document.addEventListener('DOMContentLoaded', (event) => {
  highlightEdges();
  highlightAdjacentNodes();
});
]]></script>
</svg>
