<?xml version="1.0" encoding="UTF-8" standalone="no"?>
<!DOCTYPE svg PUBLIC "-//W3C//DTD SVG 1.1//EN"
 "http://www.w3.org/Graphics/SVG/1.1/DTD/svg11.dtd">
<!-- Generated by graphviz version 14.0.0 (0)
 -->
<!-- Title: vanetza::dcc::FlowControl::PendingTransmission Pages: 1 -->
<svg width="148pt" height="316pt"
 viewBox="0.00 0.00 148.00 316.00" xmlns="http://www.w3.org/2000/svg" xmlns:xlink="http://www.w3.org/1999/xlink">
<g id="graph0" class="graph" transform="scale(1 1) rotate(0) translate(4 312)">
<title>vanetza::dcc::FlowControl::PendingTransmission</title>
<!-- Node1 -->
<g id="Node000001" class="node">
<title>Node1</title>
<g id="a_Node000001"><a xlink:title=" ">
<polygon fill="#999999" stroke="none" points="137,-150.75 3,-150.75 3,0 137,0 137,-150.75"/>
<text xml:space="preserve" text-anchor="start" x="7" y="-137.25" font-family="Helvetica,sans-Serif" font-size="10.00">vanetza::dcc::FlowControl</text>
<text xml:space="preserve" text-anchor="start" x="15.25" y="-124.5" font-family="Helvetica,sans-Serif" font-size="10.00">::PendingTransmission</text>
<text xml:space="preserve" text-anchor="start" x="7.69" y="-107.75" font-family="Helvetica,sans-Serif" font-size="10.00">+</text>
<text xml:space="preserve" text-anchor="start" x="20.62" y="-107.75" font-family="Helvetica,sans-Serif" font-size="10.00">expiry</text>
<text xml:space="preserve" text-anchor="start" x="7.69" y="-91" font-family="Helvetica,sans-Serif" font-size="10.00">+</text>
<text xml:space="preserve" text-anchor="start" x="20.62" y="-91" font-family="Helvetica,sans-Serif" font-size="10.00">request</text>
<text xml:space="preserve" text-anchor="start" x="7.69" y="-74.25" font-family="Helvetica,sans-Serif" font-size="10.00">+</text>
<text xml:space="preserve" text-anchor="start" x="20.62" y="-74.25" font-family="Helvetica,sans-Serif" font-size="10.00">packet</text>
<text xml:space="preserve" text-anchor="start" x="7.69" y="-57.5" font-family="Helvetica,sans-Serif" font-size="10.00">+</text>
<text xml:space="preserve" text-anchor="start" x="20.62" y="-57.5" font-family="Helvetica,sans-Serif" font-size="10.00">PendingTransmission()</text>
<text xml:space="preserve" text-anchor="start" x="7.69" y="-40.75" font-family="Helvetica,sans-Serif" font-size="10.00">+</text>
<text xml:space="preserve" text-anchor="start" x="20.62" y="-40.75" font-family="Helvetica,sans-Serif" font-size="10.00">profile()</text>
<text xml:space="preserve" text-anchor="start" x="7.69" y="-24" font-family="Helvetica,sans-Serif" font-size="10.00">+</text>
<text xml:space="preserve" text-anchor="start" x="20.62" y="-24" font-family="Helvetica,sans-Serif" font-size="10.00">data_rate()</text>
<text xml:space="preserve" text-anchor="start" x="7.69" y="-7.25" font-family="Helvetica,sans-Serif" font-size="10.00">+</text>
<text xml:space="preserve" text-anchor="start" x="20.62" y="-7.25" font-family="Helvetica,sans-Serif" font-size="10.00">body_length()</text>
<polygon fill="#666666" stroke="#666666" points="3,-119.25 3,-119.25 137,-119.25 137,-119.25 3,-119.25"/>
<polygon fill="#666666" stroke="#666666" points="3,-69 3,-69 18.62,-69 18.62,-69 3,-69"/>
<polygon fill="#666666" stroke="#666666" points="18.62,-69 18.62,-69 137,-69 137,-69 18.62,-69"/>
<polygon fill="none" stroke="#666666" points="3,0 3,-150.75 137,-150.75 137,0 3,0"/>
</a>
</g>
</g>
<!-- Node2 -->
<g id="Node000002" class="node">
<title>Node2</title>
<g id="a_Node000002"><a xlink:href="../../df/dd5/classvanetza_1_1dcc_1_1Transmission.html" target="_top" xlink:title=" ">
<polygon fill="white" stroke="none" points="140,-308 0,-308 0,-186.75 140,-186.75 140,-308"/>
<text xml:space="preserve" text-anchor="start" x="4" y="-294.5" font-family="Helvetica,sans-Serif" font-size="10.00">vanetza::dcc::Transmission</text>
<text xml:space="preserve" text-anchor="start" x="67" y="-277.75" font-family="Helvetica,sans-Serif" font-size="10.00"> </text>
<text xml:space="preserve" text-anchor="start" x="8.25" y="-261" font-family="Helvetica,sans-Serif" font-size="10.00">+</text>
<text xml:space="preserve" text-anchor="start" x="24.75" y="-261" font-family="Helvetica,sans-Serif" font-size="10.00">profile()</text>
<text xml:space="preserve" text-anchor="start" x="8.25" y="-244.25" font-family="Helvetica,sans-Serif" font-size="10.00">+</text>
<text xml:space="preserve" text-anchor="start" x="24.75" y="-244.25" font-family="Helvetica,sans-Serif" font-size="10.00">data_rate()</text>
<text xml:space="preserve" text-anchor="start" x="8.25" y="-227.5" font-family="Helvetica,sans-Serif" font-size="10.00">+</text>
<text xml:space="preserve" text-anchor="start" x="24.75" y="-227.5" font-family="Helvetica,sans-Serif" font-size="10.00">body_length()</text>
<text xml:space="preserve" text-anchor="start" x="8.25" y="-210.75" font-family="Helvetica,sans-Serif" font-size="10.00">+</text>
<text xml:space="preserve" text-anchor="start" x="24.75" y="-210.75" font-family="Helvetica,sans-Serif" font-size="10.00">channel_occupancy()</text>
<text xml:space="preserve" text-anchor="start" x="8.25" y="-194" font-family="Helvetica,sans-Serif" font-size="10.00">+</text>
<text xml:space="preserve" text-anchor="start" x="24.75" y="-194" font-family="Helvetica,sans-Serif" font-size="10.00">~Transmission()</text>
<polygon fill="#bfbfbf" stroke="#bfbfbf" points="0,-289.25 0,-289.25 140,-289.25 140,-289.25 0,-289.25"/>
<polygon fill="#bfbfbf" stroke="#bfbfbf" points="0,-272.5 0,-272.5 140,-272.5 140,-272.5 0,-272.5"/>
<polygon fill="none" stroke="#bfbfbf" points="0,-186.75 0,-308 140,-308 140,-186.75 0,-186.75"/>
</a>
</g>
</g>
<!-- Node2&#45;&gt;Node1 -->
<g id="edge1_Node000001_Node000002" class="edge">
<title>Node2&#45;&gt;Node1</title>
<g id="a_edge1_Node000001_Node000002"><a xlink:title=" ">
<path fill="none" stroke="#63b8ff" d="M70,-175.51C70,-167.33 70,-158.97 70,-150.75"/>
<polygon fill="none" stroke="#63b8ff" points="66.5,-175.4 70,-185.4 73.5,-175.4 66.5,-175.4"/>
</a>
</g>
</g>
</g>
</svg>
