<?xml version="1.0" encoding="UTF-8" standalone="no"?>
<!DOCTYPE svg PUBLIC "-//W3C//DTD SVG 1.1//EN"
 "http://www.w3.org/Graphics/SVG/1.1/DTD/svg11.dtd">
<!-- Generated by graphviz version 15.0.0 (0)
 -->
<!-- Title: Graphical Class Hierarchy Pages: 1 -->
<svg width="502pt" height="54pt"
 viewBox="0.00 0.00 502.00 54.00" xmlns="http://www.w3.org/2000/svg" xmlns:xlink="http://www.w3.org/1999/xlink">
<g id="graph0" class="graph" transform="scale(1 1) rotate(0) translate(4 50.25)">
<title>Graphical Class Hierarchy</title>
<!-- Node0 -->
<g id="Node000000" class="node">
<title>Node0</title>
<g id="a_Node000000"><a xlink:href="d0/d68/classvanetza_1_1asn1_1_1asn1c__wrapper__common.html" target="_top" xlink:title=" ">
<polygon fill="white" stroke="#666666" points="160,-46.25 0,-46.25 0,0 160,0 160,-46.25"/>
<text xml:space="preserve" text-anchor="start" x="8" y="-32.75" font-family="Helvetica,sans-Serif" font-size="10.00">vanetza::asn1::asn1c</text>
<text xml:space="preserve" text-anchor="start" x="8" y="-20" font-family="Helvetica,sans-Serif" font-size="10.00">_wrapper_common&lt; Vanetza</text>
<text xml:space="preserve" text-anchor="middle" x="80" y="-7.25" font-family="Helvetica,sans-Serif" font-size="10.00">_ITS2_VAM_t &gt;</text>
</a>
</g>
</g>
<!-- Node1 -->
<g id="Node000001" class="node">
<title>Node1</title>
<g id="a_Node000001"><a xlink:href="dc/dbf/classvanetza_1_1asn1_1_1asn1c__per__wrapper.html" target="_top" xlink:title=" ">
<polygon fill="white" stroke="#666666" points="329,-46.25 196,-46.25 196,0 329,0 329,-46.25"/>
<text xml:space="preserve" text-anchor="start" x="204" y="-32.75" font-family="Helvetica,sans-Serif" font-size="10.00">vanetza::asn1::asn1c</text>
<text xml:space="preserve" text-anchor="start" x="204" y="-20" font-family="Helvetica,sans-Serif" font-size="10.00">_per_wrapper&lt; Vanetza</text>
<text xml:space="preserve" text-anchor="middle" x="262.5" y="-7.25" font-family="Helvetica,sans-Serif" font-size="10.00">_ITS2_VAM_t &gt;</text>
</a>
</g>
</g>
<!-- Node0&#45;&gt;Node1 -->
<g id="edge69_Node000000_Node000001" class="edge">
<title>Node0&#45;&gt;Node1</title>
<g id="a_edge69_Node000000_Node000001"><a xlink:title=" ">
<path fill="none" stroke="#63b8ff" d="M171.75,-23.12C179.78,-23.12 187.79,-23.12 195.55,-23.12"/>
<polygon fill="#63b8ff" stroke="#63b8ff" points="171.95,-19.63 161.95,-23.13 171.95,-26.63 171.95,-19.63"/>
</a>
</g>
</g>
<!-- Node2 -->
<g id="Node000002" class="node">
<title>Node2</title>
<g id="a_Node000002"><a xlink:href="d1/dbb/classvanetza_1_1asn1_1_1r2_1_1Vam.html" target="_top" xlink:title=" ">
<polygon fill="white" stroke="#666666" points="493.5,-33.5 365,-33.5 365,-12.75 493.5,-12.75 493.5,-33.5"/>
<text xml:space="preserve" text-anchor="middle" x="429.25" y="-20" font-family="Helvetica,sans-Serif" font-size="10.00">vanetza::asn1::r2::Vam</text>
</a>
</g>
</g>
<!-- Node1&#45;&gt;Node2 -->
<g id="edge70_Node000001_Node000002" class="edge">
<title>Node1&#45;&gt;Node2</title>
<g id="a_edge70_Node000001_Node000002"><a xlink:title=" ">
<path fill="none" stroke="#63b8ff" d="M340.5,-23.12C348.62,-23.12 356.82,-23.12 364.77,-23.12"/>
<polygon fill="#63b8ff" stroke="#63b8ff" points="340.6,-19.63 330.6,-23.13 340.6,-26.63 340.6,-19.63"/>
</a>
</g>
</g>
</g>
</svg>
