<?xml version="1.0" encoding="UTF-8" standalone="no"?>
<!DOCTYPE svg PUBLIC "-//W3C//DTD SVG 1.1//EN"
 "http://www.w3.org/Graphics/SVG/1.1/DTD/svg11.dtd">
<!-- Generated by graphviz version 15.0.0 (0)
 -->
<!-- Title: Graphical Class Hierarchy Pages: 1 -->
<svg width="308pt" height="354pt"
 viewBox="0.00 0.00 308.00 354.00" xmlns="http://www.w3.org/2000/svg" xmlns:xlink="http://www.w3.org/1999/xlink">
<g id="graph0" class="graph" transform="scale(1 1) rotate(0) translate(4 349.5)">
<title>Graphical Class Hierarchy</title>
<!-- Node0 -->
<g id="Node000000" class="node">
<title>Node0</title>
<g id="a_Node000000"><a xlink:title=" ">
<polygon fill="#e0e0e0" stroke="#999999" points="111.25,-183.12 0,-183.12 0,-162.38 111.25,-162.38 111.25,-183.12"/>
<text xml:space="preserve" text-anchor="middle" x="55.62" y="-169.62" font-family="Helvetica,sans-Serif" font-size="10.00">boost::noncopyable</text>
</a>
</g>
</g>
<!-- Node1 -->
<g id="Node000001" class="node">
<title>Node1</title>
<g id="a_Node000001"><a xlink:href="d1/d9d/classvanetza_1_1security_1_1openssl_1_1BigNumber.html" target="_top" xlink:title=" ">
<polygon fill="white" stroke="#666666" points="280.62,-345.5 166.38,-345.5 166.38,-312 280.62,-312 280.62,-345.5"/>
<text xml:space="preserve" text-anchor="start" x="174.38" y="-332" font-family="Helvetica,sans-Serif" font-size="10.00">vanetza::security::</text>
<text xml:space="preserve" text-anchor="middle" x="223.5" y="-319.25" font-family="Helvetica,sans-Serif" font-size="10.00">openssl::BigNumber</text>
</a>
</g>
</g>
<!-- Node0&#45;&gt;Node1 -->
<g id="edge16_Node000000_Node000001" class="edge">
<title>Node0&#45;&gt;Node1</title>
<g id="a_edge16_Node000000_Node000001"><a xlink:title=" ">
<path fill="none" stroke="#8b1a1a" d="M65.99,-193.64C79.81,-222.22 108.31,-273.31 147.25,-302.75 152.98,-307.08 159.49,-310.73 166.23,-313.79"/>
<polygon fill="#8b1a1a" stroke="#8b1a1a" points="69.32,-192.5 61.91,-184.93 62.98,-195.47 69.32,-192.5"/>
</a>
</g>
</g>
<!-- Node2 -->
<g id="Node000002" class="node">
<title>Node2</title>
<g id="a_Node000002"><a xlink:href="d3/d61/classvanetza_1_1security_1_1openssl_1_1BigNumberContext.html" target="_top" xlink:title=" ">
<polygon fill="white" stroke="#666666" points="299.75,-293.5 147.25,-293.5 147.25,-260 299.75,-260 299.75,-293.5"/>
<text xml:space="preserve" text-anchor="start" x="155.25" y="-280" font-family="Helvetica,sans-Serif" font-size="10.00">vanetza::security::</text>
<text xml:space="preserve" text-anchor="middle" x="223.5" y="-267.25" font-family="Helvetica,sans-Serif" font-size="10.00">openssl::BigNumberContext</text>
</a>
</g>
</g>
<!-- Node0&#45;&gt;Node2 -->
<g id="edge17_Node000000_Node000002" class="edge">
<title>Node0&#45;&gt;Node2</title>
<g id="a_edge17_Node000000_Node000002"><a xlink:title=" ">
<path fill="none" stroke="#8b1a1a" d="M74.04,-191.35C91.22,-208.76 118.95,-234.48 147.25,-250.75 152.88,-253.99 158.98,-256.91 165.19,-259.53"/>
<polygon fill="#8b1a1a" stroke="#8b1a1a" points="77.01,-189.39 67.55,-184.63 71.98,-194.25 77.01,-189.39"/>
</a>
</g>
</g>
<!-- Node3 -->
<g id="Node000003" class="node">
<title>Node3</title>
<g id="a_Node000003"><a xlink:href="d4/d4f/classvanetza_1_1security_1_1openssl_1_1Bio.html" target="_top" xlink:title=" ">
<polygon fill="white" stroke="#666666" points="276.12,-241.5 170.88,-241.5 170.88,-208 276.12,-208 276.12,-241.5"/>
<text xml:space="preserve" text-anchor="start" x="178.88" y="-228" font-family="Helvetica,sans-Serif" font-size="10.00">vanetza::security::</text>
<text xml:space="preserve" text-anchor="middle" x="223.5" y="-215.25" font-family="Helvetica,sans-Serif" font-size="10.00">openssl::Bio</text>
</a>
</g>
</g>
<!-- Node0&#45;&gt;Node3 -->
<g id="edge18_Node000000_Node000003" class="edge">
<title>Node0&#45;&gt;Node3</title>
<g id="a_edge18_Node000000_Node000003"><a xlink:title=" ">
<path fill="none" stroke="#8b1a1a" d="M101.98,-186.97C123.18,-193.62 148.54,-201.57 170.52,-208.45"/>
<polygon fill="#8b1a1a" stroke="#8b1a1a" points="103.03,-183.63 92.44,-183.98 100.93,-190.31 103.03,-183.63"/>
</a>
</g>
</g>
<!-- Node4 -->
<g id="Node000004" class="node">
<title>Node4</title>
<g id="a_Node000004"><a xlink:href="d9/dee/classvanetza_1_1security_1_1openssl_1_1EvpKey.html" target="_top" xlink:title=" ">
<polygon fill="white" stroke="#666666" points="276.12,-189.5 170.88,-189.5 170.88,-156 276.12,-156 276.12,-189.5"/>
<text xml:space="preserve" text-anchor="start" x="178.88" y="-176" font-family="Helvetica,sans-Serif" font-size="10.00">vanetza::security::</text>
<text xml:space="preserve" text-anchor="middle" x="223.5" y="-163.25" font-family="Helvetica,sans-Serif" font-size="10.00">openssl::EvpKey</text>
</a>
</g>
</g>
<!-- Node0&#45;&gt;Node4 -->
<g id="edge19_Node000000_Node000004" class="edge">
<title>Node0&#45;&gt;Node4</title>
<g id="a_edge19_Node000000_Node000004"><a xlink:title=" ">
<path fill="none" stroke="#8b1a1a" d="M122.79,-172.75C138.69,-172.75 155.45,-172.75 170.6,-172.75"/>
<polygon fill="#8b1a1a" stroke="#8b1a1a" points="122.91,-169.25 112.91,-172.75 122.91,-176.25 122.91,-169.25"/>
</a>
</g>
</g>
<!-- Node5 -->
<g id="Node000005" class="node">
<title>Node5</title>
<g id="a_Node000005"><a xlink:href="d0/dd1/classvanetza_1_1security_1_1openssl_1_1Group.html" target="_top" xlink:title=" ">
<polygon fill="white" stroke="#666666" points="276.12,-137.5 170.88,-137.5 170.88,-104 276.12,-104 276.12,-137.5"/>
<text xml:space="preserve" text-anchor="start" x="178.88" y="-124" font-family="Helvetica,sans-Serif" font-size="10.00">vanetza::security::</text>
<text xml:space="preserve" text-anchor="middle" x="223.5" y="-111.25" font-family="Helvetica,sans-Serif" font-size="10.00">openssl::Group</text>
</a>
</g>
</g>
<!-- Node0&#45;&gt;Node5 -->
<g id="edge20_Node000000_Node000005" class="edge">
<title>Node0&#45;&gt;Node5</title>
<g id="a_edge20_Node000000_Node000005"><a xlink:title=" ">
<path fill="none" stroke="#8b1a1a" d="M101.98,-158.53C123.18,-151.88 148.54,-143.93 170.52,-137.05"/>
<polygon fill="#8b1a1a" stroke="#8b1a1a" points="100.93,-155.19 92.44,-161.52 103.03,-161.87 100.93,-155.19"/>
</a>
</g>
</g>
<!-- Node6 -->
<g id="Node000006" class="node">
<title>Node6</title>
<g id="a_Node000006"><a xlink:href="d2/d5b/classvanetza_1_1security_1_1openssl_1_1Point.html" target="_top" xlink:title=" ">
<polygon fill="white" stroke="#666666" points="276.12,-85.5 170.88,-85.5 170.88,-52 276.12,-52 276.12,-85.5"/>
<text xml:space="preserve" text-anchor="start" x="178.88" y="-72" font-family="Helvetica,sans-Serif" font-size="10.00">vanetza::security::</text>
<text xml:space="preserve" text-anchor="middle" x="223.5" y="-59.25" font-family="Helvetica,sans-Serif" font-size="10.00">openssl::Point</text>
</a>
</g>
</g>
<!-- Node0&#45;&gt;Node6 -->
<g id="edge21_Node000000_Node000006" class="edge">
<title>Node0&#45;&gt;Node6</title>
<g id="a_edge21_Node000000_Node000006"><a xlink:title=" ">
<path fill="none" stroke="#8b1a1a" d="M74.04,-154.15C91.22,-136.74 118.95,-111.02 147.25,-94.75 154.56,-90.55 162.66,-86.87 170.76,-83.71"/>
<polygon fill="#8b1a1a" stroke="#8b1a1a" points="71.98,-151.25 67.55,-160.87 77.01,-156.11 71.98,-151.25"/>
</a>
</g>
</g>
<!-- Node7 -->
<g id="Node000007" class="node">
<title>Node7</title>
<g id="a_Node000007"><a xlink:href="d2/def/classvanetza_1_1security_1_1openssl_1_1Signature.html" target="_top" xlink:title=" ">
<polygon fill="white" stroke="#666666" points="276.5,-33.5 170.5,-33.5 170.5,0 276.5,0 276.5,-33.5"/>
<text xml:space="preserve" text-anchor="start" x="178.5" y="-20" font-family="Helvetica,sans-Serif" font-size="10.00">vanetza::security::</text>
<text xml:space="preserve" text-anchor="middle" x="223.5" y="-7.25" font-family="Helvetica,sans-Serif" font-size="10.00">openssl::Signature</text>
</a>
</g>
</g>
<!-- Node0&#45;&gt;Node7 -->
<g id="edge22_Node000000_Node000007" class="edge">
<title>Node0&#45;&gt;Node7</title>
<g id="a_edge22_Node000000_Node000007"><a xlink:title=" ">
<path fill="none" stroke="#8b1a1a" d="M65.99,-151.86C79.81,-123.28 108.31,-72.19 147.25,-42.75 154.09,-37.58 162.02,-33.39 170.13,-30.01"/>
<polygon fill="#8b1a1a" stroke="#8b1a1a" points="62.98,-150.03 61.91,-160.57 69.32,-153 62.98,-150.03"/>
</a>
</g>
</g>
</g>
</svg>
