<?xml version="1.0" encoding="UTF-8" standalone="no"?>
<!DOCTYPE svg PUBLIC "-//W3C//DTD SVG 1.1//EN"
 "http://www.w3.org/Graphics/SVG/1.1/DTD/svg11.dtd">
<!-- Generated by graphviz version 15.0.0 (0)
 -->
<!-- Title: Graphical Class Hierarchy Pages: 1 -->
<svg width="358pt" height="80pt"
 viewBox="0.00 0.00 358.00 80.00" xmlns="http://www.w3.org/2000/svg" xmlns:xlink="http://www.w3.org/1999/xlink">
<g id="graph0" class="graph" transform="scale(1 1) rotate(0) translate(4 76.12)">
<title>Graphical Class Hierarchy</title>
<!-- Node0 -->
<g id="Node000000" class="node">
<title>Node0</title>
<g id="a_Node000000"><a xlink:href="df/dd5/classvanetza_1_1dcc_1_1Transmission.html" target="_top" xlink:title=" ">
<polygon fill="white" stroke="#666666" points="148,-42.75 0,-42.75 0,-22 148,-22 148,-42.75"/>
<text xml:space="preserve" text-anchor="middle" x="74" y="-29.25" font-family="Helvetica,sans-Serif" font-size="10.00">vanetza::dcc::Transmission</text>
</a>
</g>
</g>
<!-- Node1 -->
<g id="Node000001" class="node">
<title>Node1</title>
<g id="a_Node000001"><a xlink:href="d2/d56/structvanetza_1_1dcc_1_1FlowControl_1_1PendingTransmission.html" target="_top" xlink:title=" ">
<polygon fill="white" stroke="#666666" points="338,-72.12 196,-72.12 196,-38.62 338,-38.62 338,-72.12"/>
<text xml:space="preserve" text-anchor="start" x="204" y="-58.62" font-family="Helvetica,sans-Serif" font-size="10.00">vanetza::dcc::FlowControl</text>
<text xml:space="preserve" text-anchor="middle" x="267" y="-45.88" font-family="Helvetica,sans-Serif" font-size="10.00">::PendingTransmission</text>
</a>
</g>
</g>
<!-- Node0&#45;&gt;Node1 -->
<g id="edge86_Node000000_Node000001" class="edge">
<title>Node0&#45;&gt;Node1</title>
<g id="a_edge86_Node000000_Node000001"><a xlink:title=" ">
<path fill="none" stroke="#63b8ff" d="M159.36,-42.53C171.51,-44 183.89,-45.49 195.73,-46.91"/>
<polygon fill="#63b8ff" stroke="#63b8ff" points="160.15,-39.1 149.8,-41.38 159.31,-46.05 160.15,-39.1"/>
</a>
</g>
</g>
<!-- Node2 -->
<g id="Node000002" class="node">
<title>Node2</title>
<g id="a_Node000002"><a xlink:href="dc/da1/structvanetza_1_1dcc_1_1TransmissionLite.html" target="_top" xlink:title=" ">
<polygon fill="white" stroke="#666666" points="350,-20.75 184,-20.75 184,0 350,0 350,-20.75"/>
<text xml:space="preserve" text-anchor="middle" x="267" y="-7.25" font-family="Helvetica,sans-Serif" font-size="10.00">vanetza::dcc::TransmissionLite</text>
</a>
</g>
</g>
<!-- Node0&#45;&gt;Node2 -->
<g id="edge87_Node000000_Node000002" class="edge">
<title>Node0&#45;&gt;Node2</title>
<g id="a_edge87_Node000000_Node000002"><a xlink:title=" ">
<path fill="none" stroke="#63b8ff" d="M159.54,-22.64C167.55,-21.71 175.67,-20.78 183.66,-19.86"/>
<polygon fill="#63b8ff" stroke="#63b8ff" points="159.34,-19.14 149.8,-23.76 160.14,-26.09 159.34,-19.14"/>
</a>
</g>
</g>
</g>
</svg>
