<?xml version="1.0" encoding="UTF-8" standalone="no"?>
<!DOCTYPE svg PUBLIC "-//W3C//DTD SVG 1.1//EN"
 "http://www.w3.org/Graphics/SVG/1.1/DTD/svg11.dtd">
<!-- Generated by graphviz version 15.0.0 (0)
 -->
<!-- Title: Graphical Class Hierarchy Pages: 1 -->
<svg width="361pt" height="94pt"
 viewBox="0.00 0.00 361.00 94.00" xmlns="http://www.w3.org/2000/svg" xmlns:xlink="http://www.w3.org/1999/xlink">
<g id="graph0" class="graph" transform="scale(1 1) rotate(0) translate(4 89.5)">
<title>Graphical Class Hierarchy</title>
<!-- Node0 -->
<g id="Node000000" class="node">
<title>Node0</title>
<g id="a_Node000000"><a xlink:href="d2/d6f/classvanetza_1_1geonet_1_1DccFieldGenerator.html" target="_top" xlink:title=" ">
<polygon fill="white" stroke="#666666" points="141.25,-59.5 0,-59.5 0,-26 141.25,-26 141.25,-59.5"/>
<text xml:space="preserve" text-anchor="start" x="8" y="-46" font-family="Helvetica,sans-Serif" font-size="10.00">vanetza::geonet::DccField</text>
<text xml:space="preserve" text-anchor="middle" x="70.62" y="-33.25" font-family="Helvetica,sans-Serif" font-size="10.00">Generator</text>
</a>
</g>
</g>
<!-- Node1 -->
<g id="Node000001" class="node">
<title>Node1</title>
<g id="a_Node000001"><a xlink:href="d4/d6e/classvanetza_1_1geonet_1_1DccInformationSharing.html" target="_top" xlink:title=" ">
<polygon fill="white" stroke="#666666" points="353,-85.5 177.25,-85.5 177.25,-52 353,-52 353,-85.5"/>
<text xml:space="preserve" text-anchor="start" x="185.25" y="-72" font-family="Helvetica,sans-Serif" font-size="10.00">vanetza::geonet::DccInformation</text>
<text xml:space="preserve" text-anchor="middle" x="265.12" y="-59.25" font-family="Helvetica,sans-Serif" font-size="10.00">Sharing</text>
</a>
</g>
</g>
<!-- Node0&#45;&gt;Node1 -->
<g id="edge112_Node000000_Node000001" class="edge">
<title>Node0&#45;&gt;Node1</title>
<g id="a_edge112_Node000000_Node000001"><a xlink:title=" ">
<path fill="none" stroke="#63b8ff" d="M152.86,-53.72C160.86,-54.8 169.01,-55.9 177.07,-56.99"/>
<polygon fill="#63b8ff" stroke="#63b8ff" points="153.54,-50.28 143.17,-52.41 152.61,-57.22 153.54,-50.28"/>
</a>
</g>
</g>
<!-- Node2 -->
<g id="Node000002" class="node">
<title>Node2</title>
<g id="a_Node000002"><a xlink:href="d1/dd1/classvanetza_1_1geonet_1_1NullDccFieldGenerator.html" target="_top" xlink:title=" ">
<polygon fill="white" stroke="#666666" points="334.25,-33.5 196,-33.5 196,0 334.25,0 334.25,-33.5"/>
<text xml:space="preserve" text-anchor="start" x="204" y="-20" font-family="Helvetica,sans-Serif" font-size="10.00">vanetza::geonet::NullDcc</text>
<text xml:space="preserve" text-anchor="middle" x="265.12" y="-7.25" font-family="Helvetica,sans-Serif" font-size="10.00">FieldGenerator</text>
</a>
</g>
</g>
<!-- Node0&#45;&gt;Node2 -->
<g id="edge113_Node000000_Node000002" class="edge">
<title>Node0&#45;&gt;Node2</title>
<g id="a_edge113_Node000000_Node000002"><a xlink:title=" ">
<path fill="none" stroke="#63b8ff" d="M152.97,-31.76C167.21,-29.84 181.9,-27.86 195.74,-25.99"/>
<polygon fill="#63b8ff" stroke="#63b8ff" points="152.61,-28.28 143.17,-33.09 153.54,-35.22 152.61,-28.28"/>
</a>
</g>
</g>
</g>
</svg>
